<svg version="1.1" xmlns="http://www.w3.org/2000/svg" xmlns:xlink="http://www.w3.org/1999/xlink" id="svg-editor-canvas" class="canvas" width="100%" height="100%"><g data-item-type="text" data-item="Business" id="logo__item--business" class="logo__item">
                <g class="logo__item__inner" transform="translate(634.5 422.46177183154504) scale(1 1) rotate(0 0 0)">
                    <text data-part-id="logo__item--business" dy="0" dominant-baseline="auto" alignment-baseline="auto" font-family="Montserrat" font-size="32px" fill="#2B3E5B" letter-spacing="0" font-weight="bold" font-style="normal" data-font-family="Montserrat" data-font-weight="bold" data-font-style="normal" data-ttf-url="/builder_assets/fontsttf/font-montserrat-bold-normal.ttf"></text>
                </g>
            </g><g data-item-type="shape" data-item="Shape" data-logo-item="" id="logo__item--shape_1" class="logo__item">
    <g class="logo__item__inner" transform="translate(218.9000015258789 -5.099998474121094) scale(2.8192489665630553 2.8192489665630553) rotate(0 0 0)">
        
<g>
	<path fill="#66d6a1" d="M85.6,88.1H0.4L43,10.9L85.6,88.1z M15.3,79.5h55.4L43,29.4L15.3,79.5z" data-part-id="logo__item--shape_1__0"></path>
</g>

    </g>
</g><g data-item-type="shape" data-item="Shape" data-logo-item="" id="logo__item--shape_2" class="logo__item">
    <g class="logo__item__inner" transform="translate(481.29999923706055 5.299999237060547) scale(2.6053336913578566 2.6053336913578566) rotate(10.096379655607027 41.20000076293945 41.20000076293945)">
        
<g>
	<circle fill="#7091a9" cx="43" cy="51" r="41.2" data-part-id="logo__item--shape_2__0"></circle>
</g>

    </g>
</g><g data-item-type="shape" data-item="Shape" data-logo-item="" id="logo__item--shape_3" class="logo__item">
    <g class="logo__item__inner" transform="translate(-143.29999923706055 -116.29999923706055) scale(4.945078365307033 4.945078365307033) rotate(0 0 0)">
        
<g>
	<g>
		
	</g>
	<g>
		<path fill="#1c94c3" d="M60.3,56.2l8.5,2.7c-1.3,4.7-3.5,8.2-6.5,10.5c-3,2.3-6.9,3.4-11.5,3.4c-5.7,0-10.5-2-14.2-5.9    c-3.7-3.9-5.5-9.3-5.5-16.1c0-7.2,1.9-12.8,5.6-16.8c3.7-4,8.6-6,14.7-6c5.3,0,9.6,1.6,12.9,4.7c2,1.9,3.4,4.5,4.4,8L60,42.8    c-0.5-2.2-1.6-4-3.2-5.3c-1.6-1.3-3.6-1.9-5.9-1.9c-3.2,0-5.8,1.2-7.8,3.5c-2,2.3-3,6-3,11.2c0,5.5,1,9.4,3,11.7s4.5,3.5,7.7,3.5    c2.3,0,4.3-0.7,6-2.2S59.6,59.3,60.3,56.2z" data-part-id="logo__item--shape_3__0"></path>
	</g>
</g>

    </g>
</g><g data-item-type="shape" data-item="Shape" data-logo-item="" id="logo__item--shape_4" class="logo__item">
    <g class="logo__item__inner" transform="translate(637.7000007629395 -199.29999923706055) scale(6.37848587920809 6.37848587920809) rotate(2.13285730742227 12.550003218081176 15.949997161030014)">
        
<g>
	
	<g>
		<path fill="#d1157e" d="M18.9,57.9l6.1-0.6c0.4,2,1.1,3.5,2.2,4.5c1.1,1,2.6,1.4,4.5,1.4c2,0,3.5-0.4,4.5-1.3c1-0.8,1.5-1.8,1.5-3    c0-0.7-0.2-1.4-0.6-1.9c-0.4-0.5-1.2-1-2.2-1.3c-0.7-0.3-2.4-0.7-5-1.3c-3.3-0.8-5.7-1.8-7-3.1c-1.9-1.7-2.8-3.8-2.8-6.2    c0-1.6,0.4-3,1.3-4.4c0.9-1.4,2.2-2.4,3.9-3.1c1.7-0.7,3.7-1.1,6.1-1.1c3.9,0,6.8,0.9,8.7,2.5c2,1.7,3,4,3.1,6.8l-6.2,0.3    c-0.3-1.6-0.8-2.7-1.7-3.4c-0.9-0.7-2.2-1-3.9-1c-1.8,0-3.2,0.4-4.3,1.1c-0.7,0.5-1,1.1-1,1.9c0,0.7,0.3,1.4,0.9,1.9    c0.8,0.7,2.7,1.3,5.7,2.1c3,0.7,5.3,1.5,6.7,2.2c1.5,0.8,2.6,1.8,3.4,3.1c0.8,1.3,1.2,3,1.2,4.9c0,1.8-0.5,3.4-1.5,5    c-1,1.5-2.4,2.7-4.2,3.4c-1.8,0.8-4,1.1-6.7,1.1c-3.9,0-6.9-0.9-9-2.7C20.6,63.9,19.3,61.3,18.9,57.9z" data-part-id="logo__item--shape_4__0"></path>
		
	</g>
</g>

    </g>
</g></svg>